<?xml version="1.0" standalone="no"?><!DOCTYPE svg PUBLIC "-//W3C//DTD SVG 1.1//EN" "http://www.w3.org/Graphics/SVG/1.1/DTD/svg11.dtd"><svg class="icon" width="200px" height="200.00px" viewBox="0 0 1024 1024" version="1.1" xmlns="http://www.w3.org/2000/svg"><path d="M213.845 200.06c-12.258-11.704-32.133-11.704-44.377 0-12.268 11.694-12.268 30.655 0 42.358l44.377 42.354c12.259 11.698 32.12 11.698 44.378 0 12.258-11.695 12.258-30.655 0-42.354l-44.378-42.359z m596.305 0l-44.382 42.358c-12.25 11.699-12.25 30.66 0 42.354 12.245 11.698 32.12 11.698 44.382 0l44.374-42.354c12.262-11.703 12.262-30.66 0-42.359-12.254-11.698-32.116-11.698-44.374 0zM135.383 437.11H72.618c-17.334 0-31.389 13.415-31.389 29.95 0 16.546 14.051 29.953 31.389 29.953h62.764c17.334 0 31.385-13.407 31.385-29.954 0.001-16.534-14.05-29.949-31.384-29.949z m815.994 0h-62.765c-17.333 0-31.388 13.415-31.388 29.95 0 16.546 14.056 29.953 31.388 29.953h62.765c17.334 0 31.394-13.407 31.394-29.954 0-16.534-14.06-29.949-31.394-29.949zM480.611 92.651v59.907c0 16.542 14.051 29.945 31.385 29.945 17.329 0 31.389-13.403 31.389-29.945V92.65c0-16.543-14.06-29.949-31.39-29.949-17.333 0-31.384 13.406-31.384 29.95zM229.538 511.99c0 148.898 126.454 269.593 282.458 269.593s282.462-120.695 282.462-269.593c0-148.885-126.458-269.572-282.462-269.572S229.538 363.104 229.538 511.99z m219.688 419.355c0 16.53 14.056 29.953 31.385 29.953h62.774c17.328 0 31.385-13.424 31.385-29.953 0-16.551-14.057-29.953-31.385-29.953H480.61c-17.33 0-31.385 13.402-31.385 29.953z m-62.765-89.86c0 16.53 14.05 29.957 31.38 29.957h188.31c17.333 0 31.384-13.427 31.384-29.957 0-16.55-14.05-29.957-31.385-29.957H417.842c-17.334 0-31.381 13.406-31.381 29.957z m0 0"  /></svg>