<?xml version="1.0" encoding="utf-8"?>
<!-- Generator: Adobe Illustrator 19.0.0, SVG Export Plug-In . SVG Version: 6.00 Build 0)  -->
<svg version="1.1" id="图层_1" xmlns="http://www.w3.org/2000/svg" xmlns:xlink="http://www.w3.org/1999/xlink" x="0px" y="0px"
	 viewBox="0 0 900 900" style="enable-background:new 0 0 900 900;" xml:space="preserve">
<style type="text/css">
	.st0{fill:#1AB394;}
</style>
<path class="st0" d="M449.5,859.7c225.9,0,409.6-183.7,409.6-409.6S675.4,40.5,449.5,40.5C226.8,40.5,45.2,218.9,40,440.3v19.6
	C45.2,681.3,226.8,859.7,449.5,859.7z M268.4,410.4c15.4-15.4,40.3-14.7,55,0.6l78.7,80.6l179.2-169c15.4-14.7,40.3-14.7,55,0.6
	c14.7,15.4,14.7,40.3-0.6,55c0,0,0,0.6-0.6,0.6L427.7,574.3c-15.4,14.7-39.7,14.1-55-1.3l-105-107.5
	C252.4,450.1,253,425.2,268.4,410.4z"/>
</svg>
